{"title":"University Challenge (2016) S46E04","uid":15466384,"size":527197439,"categoryP":"video","categoryS":"hd___tv_shows","magnet":"?xt=urn:btih:3836a5c0509a89789cfb6e7cea6d7b6ab68bcefe&amp;dn=University+Challenge+%282016%29+S46E04&amp;tr=udp%3A%2F%2Ftracker.leechers-paradise.org%3A6969&amp;tr=udp%3A%2F%2Fzer0day.ch%3A1337&amp;tr=udp%3A%2F%2Fopen.demonii.com%3A1337&amp;tr=udp%3A%2F%2Ftracker.coppersurfer.tk%3A6969&amp;tr=udp%3A%2F%2Fexodus.desync.com%3A6969","seeders":2,"leechers":1,"uploader":"RoaElson","files":2,"time":1470101383,"description":"University Challenge 2016/17: S46E04\r\n\r\nAnother first-round match where Queens’ College, Cambridge, competes against Peterhouse, Cambridge, for a place in the second round of the student quiz.\r\nJeremy Paxman asks the questions.\r\n\r\nFirst shown: 8pm 1 Aug 2016\r\nDuration: 29 minutes\r\n\r\nGeneral\r\nFormat : MPEG-4\r\nFormat profile : Base Media\r\nCodec ID : isom (isom/iso2/avc1/mp41)\r\nFile size : 502 MiB\r\nDuration : 29mn 18s\r\nOverall bit rate mode : Variable\r\nOverall bit rate : 2 395 Kbps\r\n\r\nVideo\r\nID : 1\r\nFormat : AVC\r\nFormat/Info : Advanced Video Codec\r\nFormat profile :   \r\nFormat settings, CABAC : Yes\r\nFormat settings, ReFrames : 2 frames\r\nCodec ID : avc1\r\nCodec ID/Info : Advanced Video Coding\r\nDuration : 29mn 18s\r\nBit rate mode : Variable\r\nBit rate : 2 296 Kbps\r\nMaximum bit rate : 3 500 Kbps\r\nWidth : 1 280 pixels\r\nHeight : 720 pixels\r\nDisplay aspect ratio : 16:9\r\nFrame rate mode : Constant\r\nFrame rate : 25.000 fps\r\nColor space : YUV\r\nChroma subsampling : 4:2:0\r\nBit depth : 8 bits\r\nScan type : Progressive\r\nBits/(Pixel*Frame) : 0.100\r\nStream size : 481 MiB (96%)\r\n\r\nAudio\r\nID : 2\r\nFormat : AAC\r\nFormat/Info : Advanced Audio Codec\r\nFormat profile : LC\r\nCodec ID : 40\r\nDuration : 29mn 17s\r\nBit rate mode : Constant\r\nBit rate : 93.5 Kbps\r\nChannel(s) : 2 channels\r\nChannel positions : Front: L R\r\nSampling rate : 48.0 KHz\r\nFrame rate : 46.875 fps (1024 spf)\r\nCompression mode : Lossy\r\nStream size : 19.6 MiB (4%)\r\nDefault : Yes\r\nAlternate group : 1","torrent":{"xt":"urn:btih:3836a5c0509a89789cfb6e7cea6d7b6ab68bcefe","amp;dn":"University+Challenge+%282016%29+S46E04","amp;tr":["udp%3A%2F%2Ftracker.leechers-paradise.org%3A6969","udp%3A%2F%2Fzer0day.ch%3A1337","udp%3A%2F%2Fopen.demonii.com%3A1337","udp%3A%2F%2Ftracker.coppersurfer.tk%3A6969","udp%3A%2F%2Fexodus.desync.com%3A6969"],"infoHash":"3836a5c0509a89789cfb6e7cea6d7b6ab68bcefe","infoHashBuffer":{"type":"Buffer","data":[56,54,165,192,80,154,137,120,156,251,110,124,234,109,123,106,182,139,206,254]},"announce":[],"urlList":[]}}